{"title":"Bollywood Villa (2014) Hindi 720p x264 AC3 700MB 2CH TeamTolly","uid":11218597,"size":737246890,"categoryP":"video","categoryS":"movies","magnet":"?xt=urn:btih:50490efb10aaec8837d06fd7e1bb337113ca404b&amp;dn=Bollywood+Villa+%282014%29+Hindi+720p+x264+AC3+700MB+2CH+TeamTolly&amp;tr=udp%3A%2F%2Ftracker.openbittorrent.com%3A80&amp;tr=udp%3A%2F%2Fopen.demonii.com%3A1337&amp;tr=udp%3A%2F%2Ftracker.coppersurfer.tk%3A6969&amp;tr=udp%3A%2F%2Fexodus.desync.com%3A6969","seeders":2,"leechers":0,"uploader":"LoZerBoyz","files":-1,"time":1413349834,"description":"[center]\n[img]http://s25.postimg.org/e6zvklzhb/Team_Tolly.jpg[/img]\n\n[img]http://s20.postimg.org/lfqx4p9v1/Bollywood_Villa_2014_POSTER.jpg[/img]\n\n\n\n[center][color=red][size=5][font=&quot;Comic Sans MS&quot;]Movie Info:[/font][/size][/color]\n\nA perfect murder, A perfect crime, A perfect plan, A perfect revenge - Welcome to Bollywood Villa. The movie not only depicts the glory , glamor, magnitude attached to the Indian film industry but also manages to showcase the treacherous ,profiteering deceitful side of it. It is a suspense thriller, which centers around the inexplicable murders during the shooting of a film. The first day of the shooting begins with the death of the lead actor leaving everyone on the sets confused and traumatized. This is just the beginning. The movie unfolds into a series of murders from here on. Slowly , steadily the cast members fall prey to brutal and gruesome deaths. Along with everything on the sets going haywire even the police investigations fail to resolve the mystery. The sequence of events leaves everyone in high suspicion of each other. With everyone's beliefs growing stronger on the idea of the villa being cursed, it is for you to choose to enter the villa or not?\n\n[center][color=red][size=5][font=&quot;Comic Sans MS&quot;]Torrent Info:[/font][/size][/color]\n\n\n[color=red][b]General[/b][/color]\nFile size                                : 697 MiB\nDuration                                 : 2h 2mn\nOverall bit rate                         : 794 Kbps\nMovie name                               : Bollywood Villa (2014) Hindi 720p x264 AC3 700MB 2CH TeamTolly\n\n\n[color=red][b]Video[/b][/color]\nID                                       : 1\nFormat                                   : AVC\nFormat/Info                              : Advanced Video Codec\nFormat profile                           : &lt;a class=&quot;__cf_email__&quot; href=&quot;/cdn-cgi/l/email-protection&quot; data-cfemail=&quot;3971505e5179750a1708&quot;&gt;[email&amp;#160;protected]&lt;/a&gt;&lt;script cf-hash='f9e31' type=&quot;text/javascript&quot;&gt;\n/* &lt;![CDATA[ */!function(){try{var t=&quot;currentScript&quot;in document?document.currentScript:function(){for(var t=document.getElementsByTagName(&quot;script&quot;),e=t.length;e--;)if(t[e].getAttribute(&quot;cf-hash&quot;))return t[e]}();if(t&amp;&amp;t.previousSibling){var e,r,n,i,c=t.previousSibling,a=c.getAttribute(&quot;data-cfemail&quot;);if(a){for(e=&quot;&quot;,r=parseInt(a.substr(0,2),16),n=2;a.length-n;n+=2)i=parseInt(a.substr(n,2),16)^r,e+=String.fromCharCode(i);e=document.createTextNode(e),c.parentNode.replaceChild(e,c)}}}catch(u){}}();/* ]]&gt; */&lt;/script&gt;\nFormat settings, CABAC                   : Yes\nFormat settings, ReFrames                : 4 frames\nCodec ID                                 : V_MPEG4/ISO/AVC\nDuration                                 : 2h 2mn\nBit rate                                 : 408 Kbps\nWidth                                    : 1 280 pixels\nHeight                                   : 720 pixels\nDisplay aspect ratio                     : 16:9\nFrame rate mode                          : Constant\nFrame rate                               : 25.000 fps\nColor space                              : YUV\nChroma subsampling                       : 4:2:0\nBit depth                                : 8 bits\nScan type                                : Progressive\nBits/(Pixel*Frame)                       : 0.018\nStream size                              : 346 MiB (50%)\nTitle                                    : Bollywood Villa (2014) Hindi 720p x264 AC3 700MB 2CH TeamTolly\nWriting library                          : x264 core 142 r2431 ac76440\nForced                                   : No\n\n\n[color=red][b]Audio[/b][/color]\nID                                       : 2\nFormat                                   : AC-3\nFormat/Info                              : Audio Coding 3\nMode extension                           : CM (complete main)\nFormat settings, Endianness              : Big\nCodec ID                                 : A_AC3\nDuration                                 : 2h 2mn\nBit rate mode                            : Constant\nBit rate                                 : 384 Kbps\nChannel(s)                               : 2 channels\nChannel positions                        : Front: L R\nSampling rate                            : 44.1 KHz\nBit depth                                : 16 bits\nCompression mode                         : Lossy\nStream size                              : 337 MiB (48%)\nTitle                                    : TeamTolly\nLanguage                                 : Hindi\nDefault                                  : Yes\nForced                                   : No\n\n\n\n\n[img]http://img69.imageshack.us/img69/4159/odx.gif[/img]\n\n[img]http://img29.imageshack.us/img29/1281/logo1il.png[/img]\n\n\n[img]http://s25.postimg.org/ohg2p2ti7/Bollywood_Villa_1.jpg[/img]\n\n[img]http://s25.postimg.org/ljeihmwgv/Bollywood_Villa_2.jpg[/img]\n\n[img]http://s25.postimg.org/e25b2f6xr/Bollywood_Villa_3.jpg[/img]\n\n[img]http://s25.postimg.org/j9qe6vnj3/Bollywood_Villa_4.jpg[/img]\n\n[img]http://s25.postimg.org/5rjhulbdr/Bollywood_Villa_5.jpg[/img]\n\n[img]http://s25.postimg.org/6kw3n7hen/Bollywood_Villa_6.jpg[/img]\n\n[img]http://s25.postimg.org/xhg2vj07z/Bollywood_Villa_7.jpg[/img]\n\n[img]http://s25.postimg.org/9vkgn37bz/Bollywood_Villa_8.jpg[/img]\n\n[img]http://s25.postimg.org/8uk7xyqcf/Bollywood_Villa_9.jpg[/img]\n\n[img]http://s25.postimg.org/4o3ywdg4f/Bollywood_Villa_10.jpg[/img]\n\n[img]http://s25.postimg.org/qbsx6tgin/Bollywood_Villa_11.jpg[/img]\n\n[img]http://s25.postimg.org/suem7i28v/Bollywood_Villa_12.jpg[/img]\n\n[/center]\n\n\n\n[img]http://imageshack.com/a/img15/707/7hm.gif[/img]","torrent":{"xt":"urn:btih:50490efb10aaec8837d06fd7e1bb337113ca404b","amp;dn":"Bollywood+Villa+%282014%29+Hindi+720p+x264+AC3+700MB+2CH+TeamTolly","amp;tr":["udp%3A%2F%2Ftracker.openbittorrent.com%3A80","udp%3A%2F%2Fopen.demonii.com%3A1337","udp%3A%2F%2Ftracker.coppersurfer.tk%3A6969","udp%3A%2F%2Fexodus.desync.com%3A6969"],"infoHash":"50490efb10aaec8837d06fd7e1bb337113ca404b","infoHashBuffer":{"type":"Buffer","data":[80,73,14,251,16,170,236,136,55,208,111,215,225,187,51,113,19,202,64,75]},"announce":[],"urlList":[]}}